<svg width="194" height="206" viewBox="0 0 194 206" fill="none" xmlns="http://www.w3.org/2000/svg">
<path d="M8.50001 80C14.5001 73 21 68 26.5 64.5C35 16 111.5 15 116.5 13.5C113.5 17 110.5 16.5 109 20C151 22 175.5 7.83333 182.5 0.5C182 3 179.6 9.1 174 13.5C167 19 157.5 23.5 148 29C156.5 32.5 172.5 30 181 23.5C180 33 167.5 50.5 153.5 56C171.1 62 179.167 84.1667 181 94.5C178 91.6667 170.3 85.7 163.5 84.5C166.3 105.7 185 119.333 194 123.5C193.5 124.167 191.8 125.5 189 125.5C178 125 162.5 135 156 142C161.2 140 171.167 136.833 175.5 135.5C154.5 154.167 109.5 194.4 97.5 206C54.5 146.5 41 137.5 33 134C38 131.5 45.5 125 48 122.5C50.5 120 52 111.5 45.5 107C39 102.5 13.5 109.5 7.5 113C5.1 115.4 3.50001 123 3.00002 126.5C-3.49998 110.5 4 89.5 8.50001 80Z" fill="#1F1820"/>
<path d="M159 43C150 45 135.5 45.5 126.5 45C130.1 47 137.333 49.1667 140.5 50L129.5 52.5C133.5 55.1667 142.2 62.2 145 69C140.5 68.5 135.5 67 129.5 63.5C147 82 152 103.5 152 109C151.2 108.2 150 108 149.5 108L150 129C146.667 126.667 138.8 121.9 134 121.5C131.2 147.1 123.833 164.5 120.5 170C120 165 118.8 154 118 150C114.8 163.6 105.667 184.333 101.5 193C117.167 179.333 149.2 151.4 152 149C146.8 147.8 141.5 150.5 139.5 152C145.167 146.833 157.2 135.8 160 133C159.6 127 156.167 115.167 154.5 110C156.833 112.5 162 118.5 164 122.5C159.6 97.3 152.167 79.6667 149 74C150.667 74.1667 154.5 74.8 156.5 76C156.1 70 151 61.5 148.5 58L159 43Z" fill="#E83429"/>
<path d="M53 124C52.2 125.2 46.3333 131.5 43.5 134.5C52.5 143.5 91 175.5 94 178.5C93.2 176.5 93 173.667 93 172.5C94.6667 174.667 98.6 180 101 184C105 175.2 107 149 107.5 137C104.333 144 97.4 159 95 163C93.4 160.2 92.6667 156.5 92.5 155C91.8333 158.167 90.4 165.1 90 167.5C85.2 159.1 82.6667 144.333 82 138C81 140.667 78.7 146.5 77.5 148.5C73 143.5 68 130 67 122.5C65 129.3 60.8333 132.333 59 133C58.8333 130.667 57.9 125.2 55.5 122C55.1 124 54 126.5 53.5 127.5C53.5 126.833 53.4 125.2 53 124Z" fill="#989A98"/>
<path d="M94 64C94 78 81 83.5 71 73.5C80.5 65.5 86.5 65 94 64Z" fill="#E83429"/>
<path d="M89.0294 64.7034C88.7895 71.0495 84.7757 79.8046 73.9192 71.1917C79.7782 66.8734 84.325 65.4945 89.0294 64.7034Z" fill="white"/>
<path d="M39 59C37.4 59 34.6667 61.6667 33.5 63C28 54.5 38 44 46.5 38.5C60.1 28.5 86.5 22 98 20C95.6667 21.5 89.9 25.7 85.5 30.5C96.5 26 110.5 26 119 29.5C119 36 118.5 47.5 110 53C100.5 54 81 61.5 74.5 65C69.5 67.5 65 70 60.5 70C49 70 41 59 39 59Z" fill="#989A98"/>
<path fill-rule="evenodd" clip-rule="evenodd" d="M69 95C69.8333 95 71.7 94.9 72.5 94.5C73.5 94 77.5 89 76 86C74.8 83.6 71.5 83.6667 70 84C69 83.6667 66.5 82.5 64.5 80.5C61.7 81.7 56.6667 83 54.5 83.5C53.6667 82.3333 51.4 79.4 49 77C46 74 44 72 42.5 70C40.5 69.6 37.6667 67.5 36.5 66.5H33.5L33 68.5C28.6667 70 18.4 75.4 12 85C5.6 94.6 4.66666 107 5 112C6 109.667 9.1 104.1 13.5 100.5C17.3324 97.3644 19.4654 96.6565 21.929 95.8388C23.001 95.483 24.1356 95.1064 25.5 94.5C26.0536 94.254 26.7434 93.9171 27.562 93.5173C33.3974 90.6678 45.776 84.623 62 85.5C70 86 72 86.5 73 89.5C71.8 91.9 69.8333 94.1667 69 95ZM35.5 70C35 69.5 28 71.5 21.5 76.5C15 81.5 12.5 86 12 87.5C14.5 84 17 81.5651 22.5 77C24.6667 75.1667 30.3 71.2 35.5 70Z" fill="#F5F5F5"/>
<path d="M69 95C69.8333 95 71.7 94.9 72.5 94.5C73.5 94 77.5 89 76 86C74.8 83.6 71.5 83.6667 70 84C69 83.6667 66.5 82.5 64.5 80.5C61.7 81.7 56.6667 83 54.5 83.5C53.7784 82.4897 51.9819 80.1546 49.9548 77.9883C47.0868 76.1595 43.4192 74.2654 40.5 74C35 73.5 25.5 77.5 18 86.5C12.106 93.5728 8.37355 100.954 5.5893 106.461C5.39391 106.847 5.20317 107.224 5.0167 107.592C4.91402 109.361 4.92463 110.87 5 112C6 109.667 9.1 104.1 13.5 100.5C17.3324 97.3644 19.4654 96.6565 21.929 95.8388C23.001 95.483 24.1356 95.1064 25.5 94.5C26.0536 94.2539 26.7434 93.9171 27.562 93.5173C33.3974 90.6678 45.776 84.623 62 85.5C70 86 72 86.5 73 89.5C71.8 91.9 69.8333 94.1667 69 95Z" fill="#989A98"/>
<path d="M68.5 91C44.9 80.6 20 98.6667 10.5 109C32.1 93.8 67.5 100 82.5 105C81.5 104 78.9 101.6 76.5 100C86.5 102.4 100.667 109 106.5 112L95.5 98.5L97 97.5L93 90.5C96.6667 92.3333 104.8 96 108 96C102.4 89.2 100 83.1667 99.5 81L110 78C108.5 77.6667 105 76.7 103 75.5C105.8 72.7 113.833 69.6667 117.5 68.5L115 67.5C117 67.1667 121 65.5 122.5 64.5C121 63 112 61 109 61C106.6 61 104 63.3333 103 64.5C102.5 70.5 98.5 79.5 93 84C88 86 82 85.3333 79.5 85C80.1667 88.8333 76 96.5 74 97C72 97.5 65.5 96.5 65 96C66 95.1667 68.1 93 68.5 91Z" fill="#989A98"/>
</svg>
